ModelForces
version=1
nRows=4
nColumns=202
inDegrees=no

This file contains the forces exerted on a model during a simulation.

A force is a generalized force, meaning that it can be either a force (N) or a torque (Nm).

Units are S.I. units (second, meters, Newtons, ...)
Angles are in degrees.

endheader
time	glut_med1_r	glut_med2_r	glut_med3_r	glut_min1_r	glut_min2_r	glut_min3_r	semimem_r	semiten_r	bifemlh_r	bifemsh_r	sar_r	add_long_r	add_brev_r	add_mag1_r	add_mag2_r	add_mag3_r	tfl_r	pect_r	grac_r	glut_max1_r	glut_max2_r	glut_max3_r	iliacus_r	psoas_r	quad_fem_r	gem_r	peri_r	rect_fem_r	vas_med_r	vas_int_r	vas_lat_r	med_gas_r	lat_gas_r	soleus_r	tib_post_r	flex_dig_r	flex_hal_r	tib_ant_r	per_brev_r	per_long_r	per_tert_r	ext_dig_r	ext_hal_r	glut_med1_l	glut_med2_l	glut_med3_l	glut_min1_l	glut_min2_l	glut_min3_l	semimem_l	semiten_l	bifemlh_l	bifemsh_l	sar_l	add_long_l	add_brev_l	add_mag1_l	add_mag2_l	add_mag3_l	tfl_l	pect_l	grac_l	glut_max1_l	glut_max2_l	glut_max3_l	iliacus_l	psoas_l	quad_fem_l	gem_l	peri_l	rect_fem_l	vas_med_l	vas_int_l	vas_lat_l	med_gas_l	lat_gas_l	soleus_l	tib_post_l	flex_dig_l	flex_hal_l	tib_ant_l	per_brev_l	per_long_l	per_tert_l	ext_dig_l	ext_hal_l	ercspn_r	ercspn_l	intobl_r	intobl_l	extobl_r	extobl_l	femur_lat_meniscii_l.femur_lat_l.force.X	femur_lat_meniscii_l.femur_lat_l.force.Y	femur_lat_meniscii_l.femur_lat_l.force.Z	femur_lat_meniscii_l.femur_lat_l.torque.X	femur_lat_meniscii_l.femur_lat_l.torque.Y	femur_lat_meniscii_l.femur_lat_l.torque.Z	femur_lat_meniscii_l.meniscus_lat_l.force.X	femur_lat_meniscii_l.meniscus_lat_l.force.Y	femur_lat_meniscii_l.meniscus_lat_l.force.Z	femur_lat_meniscii_l.meniscus_lat_l.torque.X	femur_lat_meniscii_l.meniscus_lat_l.torque.Y	femur_lat_meniscii_l.meniscus_lat_l.torque.Z	femur_med_meniscii_l.femur_med_l.force.X	femur_med_meniscii_l.femur_med_l.force.Y	femur_med_meniscii_l.femur_med_l.force.Z	femur_med_meniscii_l.femur_med_l.torque.X	femur_med_meniscii_l.femur_med_l.torque.Y	femur_med_meniscii_l.femur_med_l.torque.Z	femur_med_meniscii_l.meniscus_med_l.force.X	femur_med_meniscii_l.meniscus_med_l.force.Y	femur_med_meniscii_l.meniscus_med_l.force.Z	femur_med_meniscii_l.meniscus_med_l.torque.X	femur_med_meniscii_l.meniscus_med_l.torque.Y	femur_med_meniscii_l.meniscus_med_l.torque.Z	femur_lat_meniscii_r.femur_lat_r.force.X	femur_lat_meniscii_r.femur_lat_r.force.Y	femur_lat_meniscii_r.femur_lat_r.force.Z	femur_lat_meniscii_r.femur_lat_r.torque.X	femur_lat_meniscii_r.femur_lat_r.torque.Y	femur_lat_meniscii_r.femur_lat_r.torque.Z	femur_lat_meniscii_r.meniscus_lat_r.force.X	femur_lat_meniscii_r.meniscus_lat_r.force.Y	femur_lat_meniscii_r.meniscus_lat_r.force.Z	femur_lat_meniscii_r.meniscus_lat_r.torque.X	femur_lat_meniscii_r.meniscus_lat_r.torque.Y	femur_lat_meniscii_r.meniscus_lat_r.torque.Z	femur_med_meniscii_r.femur_med_r.force.X	femur_med_meniscii_r.femur_med_r.force.Y	femur_med_meniscii_r.femur_med_r.force.Z	femur_med_meniscii_r.femur_med_r.torque.X	femur_med_meniscii_r.femur_med_r.torque.Y	femur_med_meniscii_r.femur_med_r.torque.Z	femur_med_meniscii_r.meniscus_med_r.force.X	femur_med_meniscii_r.meniscus_med_r.force.Y	femur_med_meniscii_r.meniscus_med_r.force.Z	femur_med_meniscii_r.meniscus_med_r.torque.X	femur_med_meniscii_r.meniscus_med_r.torque.Y	femur_med_meniscii_r.meniscus_med_r.torque.Z	femur_med_tibia_l.tibia_upper_l.force.X	femur_med_tibia_l.tibia_upper_l.force.Y	femur_med_tibia_l.tibia_upper_l.force.Z	femur_med_tibia_l.tibia_upper_l.torque.X	femur_med_tibia_l.tibia_upper_l.torque.Y	femur_med_tibia_l.tibia_upper_l.torque.Z	femur_med_tibia_l.femur_med_l.force.X	femur_med_tibia_l.femur_med_l.force.Y	femur_med_tibia_l.femur_med_l.force.Z	femur_med_tibia_l.femur_med_l.torque.X	femur_med_tibia_l.femur_med_l.torque.Y	femur_med_tibia_l.femur_med_l.torque.Z	femur_lat_tibia_l.tibia_upper_l.force.X	femur_lat_tibia_l.tibia_upper_l.force.Y	femur_lat_tibia_l.tibia_upper_l.force.Z	femur_lat_tibia_l.tibia_upper_l.torque.X	femur_lat_tibia_l.tibia_upper_l.torque.Y	femur_lat_tibia_l.tibia_upper_l.torque.Z	femur_lat_tibia_l.femur_lat_l.force.X	femur_lat_tibia_l.femur_lat_l.force.Y	femur_lat_tibia_l.femur_lat_l.force.Z	femur_lat_tibia_l.femur_lat_l.torque.X	femur_lat_tibia_l.femur_lat_l.torque.Y	femur_lat_tibia_l.femur_lat_l.torque.Z	femur_med_tibia_r.tibia_upper_r.force.X	femur_med_tibia_r.tibia_upper_r.force.Y	femur_med_tibia_r.tibia_upper_r.force.Z	femur_med_tibia_r.tibia_upper_r.torque.X	femur_med_tibia_r.tibia_upper_r.torque.Y	femur_med_tibia_r.tibia_upper_r.torque.Z	femur_med_tibia_r.femur_med_r.force.X	femur_med_tibia_r.femur_med_r.force.Y	femur_med_tibia_r.femur_med_r.force.Z	femur_med_tibia_r.femur_med_r.torque.X	femur_med_tibia_r.femur_med_r.torque.Y	femur_med_tibia_r.femur_med_r.torque.Z	femur_lat_tibia_r.tibia_upper_r.force.X	femur_lat_tibia_r.tibia_upper_r.force.Y	femur_lat_tibia_r.tibia_upper_r.force.Z	femur_lat_tibia_r.tibia_upper_r.torque.X	femur_lat_tibia_r.tibia_upper_r.torque.Y	femur_lat_tibia_r.tibia_upper_r.torque.Z	femur_lat_tibia_r.femur_lat_r.force.X	femur_lat_tibia_r.femur_lat_r.force.Y	femur_lat_tibia_r.femur_lat_r.force.Z	femur_lat_tibia_r.femur_lat_r.torque.X	femur_lat_tibia_r.femur_lat_r.torque.Y	femur_lat_tibia_r.femur_lat_r.torque.Z	aACL_R	pACL_R	aPCL_R	pPCL_R	aMCL_R	aLCL_R	aPCL_L	pPCL_L	aMCL_L	aLCL_L	ground_prescribedForce_0_fx	ground_prescribedForce_0_fy	ground_prescribedForce_0_fz
      0.21838626	      9.47767663	      6.98781215	      7.49943177	      3.25032762	      3.82075773	      4.00698678	      3.82019510	      4.57615290	      8.53889142	      9.44302019	      1.78537217	      6.94022404	      5.05276926	      3.59503766	      3.03722505	      5.04280474	      5.02950254	      2.74027073	      1.75548361	      4.50960009	      6.85723069	      5.13803694	     25.05457598	     15.69014513	      4.45288668	      3.24614042	      5.52038176	     21.21495372	     16.36330453	     18.74464656	     26.45970770	      2.25575273	      1.55441865	     11.44105056	     12.60887743	      2.14267337	      2.93844200	     16.15793080	      4.14856070	      9.50102243	      7.10894021	      9.26346825	      2.85918863	      9.47767663	      6.98781215	      7.49943177	      3.25032762	      3.82075773	      4.00698678	     11.49353084	      5.11652299	      9.99226828	      8.86130931	      1.85603749	      6.94022404	      5.05276926	      3.59503766	      3.03722505	      5.04280474	      4.75079464	      2.74027073	      1.91030364	      4.50960009	      6.85723069	      5.13803694	     25.05457598	     15.69014513	      4.45288668	      3.24614042	      5.52038176	     13.81931748	      8.17379342	      9.41407098	     10.11380613	     19.54124912	      9.07711214	     41.96948669	     46.79142015	      3.89864009	      3.98457167	     10.83887380	      5.72482982	     15.52929689	      2.42715459	      7.11015255	      2.23443797	     30.58251293	     30.58251293	     11.20313110	     11.20313110	     28.78580945	     28.78580945	      2.76307435	     50.99597937	     -9.56042239	      5.21997485	     -0.02578839	      1.48581788	     -2.76307435	    -50.99597937	      9.56042239	     -1.74637766	      0.02558040	     -0.48301696	     -3.31599387	     20.97615968	     -3.40468921	      0.94473225	     -0.02138609	     -1.00501789	      3.31599387	    -20.97615968	      3.40468921	      0.28075727	      0.00368718	     -0.29758878	    192.24494584	     82.19444804	     11.90157691	     -6.88619044	      4.76136724	     79.03547350	   -192.24494584	    -82.19444804	    -11.90157691	      2.68002774	     -5.77711044	     -4.07885389	    335.98106592	    108.06740646	    -12.55320005	      7.35911620	     -6.81660402	    136.91998980	   -335.98106592	   -108.06740646	     12.55320005	     -2.06194097	      5.50703061	     -6.41714018	      0.00000000	      0.00000000	      0.00000000	      0.00000000	      0.00000000	      0.00000000	      0.00000000	      0.00000000	      0.00000000	      0.00000000	      0.00000000	      0.00000000	      0.00000000	      0.00000000	      0.00000000	      0.00000000	      0.00000000	      0.00000000	      0.00000000	      0.00000000	      0.00000000	      0.00000000	      0.00000000	      0.00000000	    -22.36364806	    -25.41870532	     17.12465375	     -0.81272147	      0.48211743	     -0.34627461	     22.36364806	     25.41870532	    -17.12465375	      7.49977556	     -0.34188947	      9.28726341	      0.00000000	      0.00000000	      0.00000000	      0.00000000	      0.00000000	      0.00000000	      0.00000000	      0.00000000	      0.00000000	      0.00000000	      0.00000000	      0.00000000	      0.00000000	      0.00000000	    310.40172706	    174.55194284	     14.03631643	      0.00000000	      0.00000000	      0.00000000	      0.00000001	      0.00000000	     84.26488000	    -70.70660000	      0.00000000
      0.21928959	      9.45494456	      6.97230537	      7.48258331	      3.24341891	      3.81323673	      3.99739831	      3.81010548	      4.56499605	      8.52543255	      9.41921509	      1.78070843	      6.92464107	      5.04212899	      3.58710632	      3.03036385	      5.03036472	      5.02331447	      2.73440635	      1.75101927	      4.49957511	      6.84194589	      5.12638723	     25.02622699	     15.65792491	      4.44321350	      3.24149804	      5.50432781	     21.19709224	     16.32836504	     18.70631934	     26.40992192	      2.24276442	      1.54794004	     11.40236259	     12.59643884	      2.14903616	      2.91753631	     16.12200880	      4.13795905	      9.45071741	      7.11569087	      9.20692135	      2.84619982	      9.45494456	      6.97230537	      7.48258331	      3.24341891	      3.81323673	      3.99739831	     11.46175616	      5.10435540	      9.96537515	      8.84204220	      1.85211077	      6.92464107	      5.04212899	      3.58710632	      3.03036385	      5.03036472	      4.74308508	      2.73440635	      1.90619078	      4.49957511	      6.84194589	      5.12638723	     25.02622699	     15.65792491	      4.44321350	      3.24149804	      5.50432781	     13.78252846	      8.15516346	      9.39222564	     10.09040231	     19.48168704	      9.04940554	     41.84712893	     46.74022467	      3.88557346	      3.97235712	     10.81086861	      5.70881836	     15.49492907	      2.42218102	      7.08858223	      2.22774447	     30.51736004	     30.51736004	     11.17721801	     11.17721801	     28.76246291	     28.76246291	      2.76307435	     50.99597937	     -9.56042239	      5.21997485	     -0.02578839	      1.48581788	     -2.76307435	    -50.99597937	      9.56042239	     -1.74637766	      0.02558040	     -0.48301696	     -3.31599387	     20.97615968	     -3.40468921	      0.94473225	     -0.02138609	     -1.00501789	      3.31599387	    -20.97615968	      3.40468921	      0.28075727	      0.00368718	     -0.29758878	    189.23104482	     80.70331718	     11.87801206	     -6.84084492	      4.68672338	     77.80126859	   -189.23104482	    -80.70331718	    -11.87801206	      2.63666178	     -5.68803569	     -4.02030351	    329.27577247	    108.85016818	    -11.33810014	      6.85294816	     -6.67658035	    134.15767597	   -329.27577247	   -108.85016818	     11.33810014	     -2.01920265	      5.38120220	     -6.21444552	      0.00000000	      0.00000000	      0.00000000	      0.00000000	      0.00000000	      0.00000000	      0.00000000	      0.00000000	      0.00000000	      0.00000000	      0.00000000	      0.00000000	      0.00000000	      0.00000000	      0.00000000	      0.00000000	      0.00000000	      0.00000000	      0.00000000	      0.00000000	      0.00000000	      0.00000000	      0.00000000	      0.00000000	    -22.12495619	    -25.22536164	     17.03302257	     -0.80762584	      0.47838837	     -0.34103557	     22.12495619	     25.22536164	    -17.03302257	      7.45870255	     -0.33819911	      9.18803295	      0.00000000	      0.00000000	      0.00000000	      0.00000000	      0.00000000	      0.00000000	      0.00000000	      0.00000000	      0.00000000	      0.00000000	      0.00000000	      0.00000000	      0.00000000	      0.00000000	    310.01670171	    174.72613198	     14.33751315	      0.00000000	      0.00000000	      0.00000000	      0.00000001	      0.00000000	     84.26488000	    -70.70660000	      0.00000000
      0.22044627	      9.42623195	      6.95271728	      7.46130102	      3.23469102	      3.80373607	      3.98528714	      3.80152066	      4.55351241	      8.51178959	      9.40804611	      1.77786745	      6.90495731	      5.02868667	      3.57708753	      3.02169733	      5.01465194	      5.01719676	      2.72699795	      1.74773849	      4.48691207	      6.82263895	      5.11167229	     24.99042058	     15.61723228	      4.43099387	      3.23563520	      5.48403347	     21.18100386	     16.29613910	     18.67102912	     26.36030234	      2.23498608	      1.54354349	     11.36131419	     12.57784733	      2.15887335	      2.89260953	     16.07255564	      4.12697640	      9.38990619	      7.12331289	      9.13223934	      2.82893468	      9.42623195	      6.95271728	      7.46130102	      3.23469102	      3.80373607	      3.98528714	     11.42160547	      5.08898658	      9.93139767	      8.81770320	      1.84715004	      6.90495731	      5.02868667	      3.57708753	      3.02169733	      5.01465194	      4.73334731	      2.72699795	      1.90099511	      4.48691207	      6.82263895	      5.11167229	     24.99042058	     15.61723228	      4.43099387	      3.23563520	      5.48403347	     13.73605039	      8.13163284	      9.36463449	     10.06084348	     19.40634871	      9.01436080	     41.69245628	     46.67554249	      3.86906914	      3.95693253	     10.77549163	      5.68858535	     15.45148639	      2.41589939	      7.06129967	      2.21928011	     30.43505182	     30.43505182	     11.14448672	     11.14448672	     28.73297545	     28.73297545	      2.76307435	     50.99597937	     -9.56042239	      5.21997485	     -0.02578839	      1.48581788	     -2.76307435	    -50.99597937	      9.56042239	     -1.74637766	      0.02558040	     -0.48301696	     -3.31599387	     20.97615968	     -3.40468921	      0.94473225	     -0.02138609	     -1.00501789	      3.31599387	    -20.97615968	      3.40468921	      0.28075727	      0.00368718	     -0.29758878	    195.33659231	     82.93864269	     11.43083744	     -6.70919766	      4.83380711	     80.32259812	   -195.33659231	    -82.93864269	    -11.43083744	      2.68594693	     -5.85477982	     -4.16315797	    340.82477792	    111.76988540	    -12.67133908	      7.45874297	     -6.91433820	    138.87188125	   -340.82477792	   -111.76988540	     12.67133908	     -2.10069418	      5.58862435	     -6.44855223	      0.00000000	      0.00000000	      0.00000000	      0.00000000	      0.00000000	      0.00000000	      0.00000000	      0.00000000	      0.00000000	      0.00000000	      0.00000000	      0.00000000	      0.00000000	      0.00000000	      0.00000000	      0.00000000	      0.00000000	      0.00000000	      0.00000000	      0.00000000	      0.00000000	      0.00000000	      0.00000000	      0.00000000	    -22.18053750	    -25.08485663	     17.10732934	     -0.80857375	      0.47971650	     -0.34525178	     22.18053750	     25.08485663	    -17.10732934	      7.48764051	     -0.33850233	      9.21207283	      0.00000000	      0.00000000	      0.00000000	      0.00000000	      0.00000000	      0.00000000	      0.00000000	      0.00000000	      0.00000000	      0.00000000	      0.00000000	      0.00000000	      0.00000000	      0.00000000	    308.87014628	    173.09889365	     13.77160890	      0.00000000	      0.00000000	      0.00000000	      0.00000001	      0.00000000	     84.26488000	    -70.70660000	      0.00000000
      0.22124756	      9.40659832	      6.93932190	      7.44674744	      3.22872189	      3.79723888	      3.97700549	      3.79531411	      4.54547007	      8.50141708	      9.38850413	      1.77418436	      6.89149685	      5.01949304	      3.57023619	      3.01577105	      5.00390761	      5.01167990	      2.72193134	      1.74449891	      4.47825270	      6.80943631	      5.10161002	     24.96593674	     15.58940953	      4.42263711	      3.23162679	      5.47014532	     21.16961710	     16.27872916	     18.64919774	     26.33219214	      2.22142960	      1.53683022	     11.32494481	     12.56164311	      2.16652605	      2.87612843	     16.04161960	      4.12056659	      9.34939896	      7.13079365	      9.08082123	      2.81725287	      9.40659832	      6.93932190	      7.44674744	      3.22872189	      3.79723888	      3.97700549	     11.39413984	      5.07847735	      9.90815806	      8.80105832	      1.84375728	      6.89149685	      5.01949304	      3.57023619	      3.01577105	      5.00390761	      4.72668869	      2.72193134	      1.89744182	      4.47825270	      6.80943631	      5.10161002	     24.96593674	     15.58940953	      4.42263711	      3.23162679	      5.47014532	     13.70426211	      8.11554307	      9.34576862	     10.04063264	     19.35476324	      8.99036539	     41.58661074	     46.63130129	      3.85778334	      3.94638733	     10.75129836	      5.67474413	     15.42175875	      2.41160428	      7.04261986	      2.21348585	     30.37876028	     30.37876028	     11.12210462	     11.12210462	     28.71281277	     28.71281277	      2.76307435	     50.99597937	     -9.56042239	      5.21997485	     -0.02578839	      1.48581788	     -2.76307435	    -50.99597937	      9.56042239	     -1.74637766	      0.02558040	     -0.48301696	     -3.31599387	     20.97615968	     -3.40468921	      0.94473225	     -0.02138609	     -1.00501789	      3.31599387	    -20.97615968	      3.40468921	      0.28075727	      0.00368718	     -0.29758878	    187.61945870	     79.89581328	     11.71934846	     -6.75689576	      4.64707378	     77.14824459	   -187.61945870	    -79.89581328	    -11.71934846	      2.60905167	     -5.63741564	     -3.99226384	    327.79864219	    107.01809019	    -11.57675179	      6.91502930	     -6.64125318	    133.57000894	   -327.79864219	   -107.01809019	     11.57675179	     -1.99849574	      5.35894851	     -6.21103509	      0.00000000	      0.00000000	      0.00000000	      0.00000000	      0.00000000	      0.00000000	      0.00000000	      0.00000000	      0.00000000	      0.00000000	      0.00000000	      0.00000000	      0.00000000	      0.00000000	      0.00000000	      0.00000000	      0.00000000	      0.00000000	      0.00000000	      0.00000000	      0.00000000	      0.00000000	      0.00000000	      0.00000000	    -21.82047728	    -24.75871251	     16.93160219	     -0.79948664	      0.47357268	     -0.33807193	     21.82047728	     24.75871251	    -16.93160219	      7.40970599	     -0.33306249	      9.06240829	      0.00000000	      0.00000000	      0.00000000	      0.00000000	      0.00000000	      0.00000000	      0.00000000	      0.00000000	      0.00000000	      0.00000000	      0.00000000	      0.00000000	      0.00000000	      0.00000000	    308.81244046	    174.06966488	     14.54779057	      0.00000000	      0.00000000	      0.00000000	      0.00000001	      0.00000000	     84.26488000	    -70.70660000	      0.00000000
